<svg width="142" height="47" viewBox="0 0 142 47" fill="none" xmlns="http://www.w3.org/2000/svg">
<path d="M142 40.7057C142 44.1732 139.19 46.9828 135.723 46.9828H6.27712C2.80957 46.9828 0 44.1732 0 40.7057V6.81037C0 3.34282 2.80957 0.533249 6.27712 0.533249H135.723C139.188 0.533249 142 3.34282 142 6.81037V40.7057Z" fill="black"/>
<path d="M10.6497 9.4748V25.2023V40.9298L26.5132 25.2023L10.6497 9.4748Z" fill="url(#paint0_linear)"/>
<path d="M30.772 20.9804L24.3699 17.2824L10.6497 9.36174V9.47557L26.5132 25.2031L30.772 20.9804Z" fill="url(#paint1_linear)"/>
<path d="M10.6497 40.9306V41.0472L24.3699 33.1237L30.772 29.4285L26.5132 25.2031L10.6497 40.9306Z" fill="url(#paint2_linear)"/>
<path d="M30.772 20.9804L26.5132 25.2031L30.772 29.4285L38.0902 25.2031L30.772 20.9804Z" fill="url(#paint3_linear)"/>
<path d="M110.512 31.3525C109.915 31.3525 109.373 31.2414 108.879 31.0221C108.388 30.8028 107.974 30.4641 107.638 30.0088H107.538C107.605 30.5418 107.638 31.0499 107.638 31.5274V35.292H106.253V22.0381H107.38L107.572 23.2902H107.638C107.994 22.7905 108.41 22.4268 108.882 22.2047C109.354 21.9826 109.898 21.8716 110.509 21.8716C111.722 21.8716 112.658 22.2852 113.319 23.1153C113.979 23.9454 114.307 25.1087 114.307 26.6051C114.307 28.107 113.971 29.2758 113.302 30.1059C112.633 30.936 111.703 31.3525 110.512 31.3525ZM110.312 23.0487C109.376 23.0487 108.702 23.3069 108.285 23.826C107.869 24.3424 107.652 25.167 107.641 26.2969V26.6051C107.641 27.8905 107.855 28.8094 108.285 29.3647C108.713 29.9171 109.401 30.1948 110.345 30.1948C111.136 30.1948 111.755 29.8755 112.202 29.2342C112.649 28.5956 112.874 27.7128 112.874 26.5884C112.874 25.4474 112.649 24.5728 112.202 23.9621C111.753 23.3513 111.122 23.0487 110.312 23.0487Z" fill="#F9F9F9"/>
<path d="M117.516 31.1859H116.131V18.1986H117.516V31.1859Z" fill="#F9F9F9"/>
<path d="M125.484 31.1859L125.209 29.8838H125.143C124.687 30.4585 124.232 30.8444 123.777 31.0471C123.324 31.2498 122.758 31.3525 122.078 31.3525C121.17 31.3525 120.459 31.1193 119.945 30.6501C119.432 30.1837 119.174 29.5174 119.174 28.6567C119.174 26.8105 120.651 25.8416 123.604 25.7528L125.156 25.7028V25.1364C125.156 24.4174 125.001 23.8871 124.693 23.5456C124.385 23.2042 123.89 23.032 123.21 23.032C122.447 23.032 121.586 23.2652 120.623 23.7344L120.198 22.6739C120.648 22.4296 121.142 22.238 121.681 22.0992C122.216 21.9604 122.755 21.891 123.296 21.891C124.387 21.891 125.195 22.1325 125.72 22.6184C126.245 23.1014 126.508 23.8788 126.508 24.9476V31.1915H125.484V31.1859ZM122.352 30.2087C123.216 30.2087 123.89 29.9727 124.385 29.5007C124.876 29.0287 125.123 28.3652 125.123 27.5129V26.6856L123.738 26.7439C122.636 26.7828 121.842 26.9549 121.356 27.2575C120.87 27.5601 120.626 28.0321 120.626 28.6734C120.626 29.1731 120.775 29.5562 121.081 29.8172C121.383 30.0782 121.808 30.2087 122.352 30.2087Z" fill="#F9F9F9"/>
<path d="M127.313 22.0381H128.799L130.803 27.2547C131.242 28.4457 131.517 29.3064 131.622 29.8339H131.689C131.761 29.5507 131.914 29.0648 132.144 28.3763C132.375 27.6878 133.13 25.5779 134.41 22.0381H135.895L131.964 32.4547C131.575 33.4846 131.12 34.2148 130.598 34.6451C130.079 35.0754 129.44 35.292 128.682 35.292C128.26 35.292 127.841 35.2448 127.43 35.1504V34.0399C127.735 34.1065 128.08 34.1398 128.457 34.1398C129.41 34.1398 130.087 33.6068 130.495 32.5379L131.003 31.2359L127.313 22.0381Z" fill="#F9F9F9"/>
<path d="M84.8453 22.8877C85.2839 23.2514 86.2029 24.0176 86.2029 25.4724C86.2029 26.8883 85.4005 27.5573 84.5954 28.1903C84.3455 28.4374 84.0596 28.7067 84.0596 29.1287C84.0596 29.5479 84.3456 29.7783 84.5565 29.9505L85.2451 30.4863C86.0863 31.1942 86.8525 31.8466 86.8525 33.1654C86.8525 34.9644 85.1118 36.7801 81.8219 36.7801C79.0457 36.7801 77.7075 35.4613 77.7075 34.0427C77.7075 33.3542 78.0518 32.3797 79.1817 31.7078C80.3672 30.9805 81.9746 30.8861 82.8353 30.8278C82.566 30.4835 82.2606 30.1198 82.2606 29.5285C82.2606 29.2037 82.3577 29.0121 82.4521 28.7817C82.2411 28.8011 82.0302 28.8205 81.8386 28.8205C79.8119 28.8205 78.6626 27.3075 78.6626 25.8166C78.6626 24.9365 79.0651 23.9593 79.8869 23.2514C80.978 22.3519 82.28 22.1992 83.3128 22.1992H87.2523L86.028 22.8877H84.8453ZM83.4849 31.383C83.3322 31.3636 83.235 31.3636 83.0463 31.3636C82.8741 31.3636 81.8386 31.4024 81.0363 31.6717C80.6143 31.8244 79.3899 32.2825 79.3899 33.6429C79.3899 35.0005 80.7114 35.9777 82.7575 35.9777C84.5926 35.9777 85.5699 35.0949 85.5699 33.9094C85.5727 32.9322 84.9397 32.4186 83.4849 31.383ZM84.0402 27.7489C84.4788 27.3075 84.5177 26.6967 84.5177 26.3524C84.5177 24.9754 83.6959 22.8321 82.1079 22.8321C81.6109 22.8321 81.0751 23.0792 80.767 23.4651C80.4421 23.8677 80.345 24.3841 80.345 24.881C80.345 26.1637 81.0918 28.2875 82.7381 28.2875C83.2184 28.2847 83.7348 28.0543 84.0402 27.7489Z" fill="#F9F9F9"/>
<path d="M72.799 31.0776C69.7618 31.0776 68.1377 28.7095 68.1377 26.569C68.1377 24.0676 70.181 21.9271 73.085 21.9271C75.8918 21.9271 77.6491 24.1231 77.6491 26.4357C77.6519 28.69 75.914 31.0776 72.799 31.0776ZM75.1866 29.5313C75.6447 28.9205 75.7613 28.1542 75.7613 27.4102C75.7613 25.7278 74.9589 22.5184 72.5908 22.5184C71.9606 22.5184 71.3304 22.7683 70.8723 23.1681C70.1283 23.8372 69.9922 24.6756 69.9922 25.5001C69.9922 27.3908 70.9278 30.5029 73.2404 30.5029C73.9845 30.5029 74.748 30.142 75.1866 29.5313Z" fill="#F9F9F9"/>
<path d="M62.4462 31.0776C59.409 31.0776 57.7849 28.7095 57.7849 26.569C57.7849 24.0676 59.8282 21.9271 62.7322 21.9271C65.539 21.9271 67.2964 24.1231 67.2964 26.4357C67.2964 28.69 65.5584 31.0776 62.4462 31.0776ZM64.8338 29.5313C65.2919 28.9205 65.4085 28.1542 65.4085 27.4102C65.4085 25.7278 64.6062 22.5184 62.238 22.5184C61.6078 22.5184 60.9776 22.7683 60.5195 23.1681C59.7755 23.8372 59.6395 24.6756 59.6395 25.5001C59.6395 27.3908 60.5751 30.5029 62.8877 30.5029C63.6289 30.5029 64.3924 30.142 64.8338 29.5313Z" fill="#F9F9F9"/>
<path d="M56.3247 30.7778L53.5789 31.4108C52.4657 31.5829 51.4662 31.7356 50.4112 31.7356C45.1086 31.7356 43.093 27.8377 43.093 24.7839C43.093 21.0581 45.9553 17.6017 50.8527 17.6017C51.891 17.6017 52.8877 17.7544 53.7899 18.0042C55.2308 18.4068 55.9027 18.9065 56.3247 19.1952L54.7311 20.7111L54.0592 20.8638L54.5395 20.0948C53.8871 19.4618 52.6961 18.2902 50.4307 18.2902C47.3962 18.2902 45.1114 20.5945 45.1114 23.9565C45.1114 27.5657 47.7238 30.9666 51.9104 30.9666C53.1403 30.9666 53.7733 30.7167 54.3507 30.4863V27.3991L51.4523 27.5518L52.9876 26.7245H57.0604L56.5606 27.2047C56.4246 27.3213 56.408 27.3602 56.3691 27.5129C56.3497 27.685 56.3302 28.2431 56.3302 28.4346V30.7778H56.3247Z" fill="#F9F9F9"/>
<path d="M90.914 30.2253C90.281 30.167 90.1478 30.0532 90.1478 29.3036V29.0926V18.4318C90.1505 18.3901 90.1533 18.3485 90.1589 18.3068C90.2366 17.635 90.4282 17.5212 91.0251 17.1741H88.2766L86.8357 17.8654H88.3043V17.8737V17.8654V29.087V29.7228C88.3043 30.1059 88.2294 30.1642 87.7852 30.7389H91.1861L91.8968 30.3169C91.5692 30.2808 91.2416 30.2642 90.914 30.2253Z" fill="#F9F9F9"/>
<path d="M98.7291 30.4002C98.5209 30.514 98.3099 30.6501 98.1017 30.7445C97.4715 31.0304 96.8218 31.1082 96.2499 31.1082C95.6419 31.1082 94.6869 31.0693 93.7124 30.3641C92.3604 29.4091 91.769 27.7683 91.769 26.3386C91.769 23.3818 94.1733 21.9326 96.1361 21.9326C96.8218 21.9326 97.5298 22.1048 98.1017 22.4657C99.0539 23.0931 99.3038 23.9149 99.4343 24.3535L94.9534 26.1664L93.4848 26.2803C93.9595 28.7011 95.6003 30.1115 97.4132 30.1115C98.3849 30.1115 99.0928 29.77 99.7397 29.4452L98.7291 30.4002ZM96.9384 24.7172C97.2993 24.584 97.4909 24.4701 97.4909 24.2036C97.4909 23.4401 96.633 22.5628 95.603 22.5628C94.8396 22.5628 93.4098 23.1542 93.4098 25.2142C93.4098 25.539 93.4487 25.8805 93.4681 26.2247L96.9384 24.7172Z" fill="#F9F9F9"/>
<path d="M100.573 22.0631V23.3208H100.42V22.0631H100.003V21.9326H100.989V22.0631H100.573Z" fill="#F9F9F9"/>
<path d="M102.288 23.3208V22.0492H102.28L101.891 23.3208H101.772L101.38 22.0492H101.375V23.3208H101.236V21.9326H101.475L101.827 23.0542H101.833L102.18 21.9326H102.422V23.3208H102.288Z" fill="#F9F9F9"/>
<path d="M46.9048 13.8615H45.9498C45.9498 13.731 45.8581 13.359 45.6777 12.7454H44.3007C44.1147 13.3479 44.0203 13.7199 44.0203 13.8615H43.1235C43.1235 13.7837 43.3567 13.148 43.8204 11.9514C44.284 10.7576 44.5172 10.0997 44.5172 9.9775H45.6444C45.6444 10.0913 45.8554 10.7382 46.2746 11.9237C46.6966 13.1091 46.9048 13.756 46.9048 13.8615ZM45.5278 12.1791C45.1891 11.1519 45.0169 10.5994 45.0169 10.5161H44.9697C44.9697 10.5938 44.7948 11.1491 44.4423 12.1791H45.5278Z" fill="#F9F9FA"/>
<path d="M50.7528 13.8621H50.0171C50.0171 13.7815 49.7451 13.3512 49.1981 12.5711C48.6262 11.7493 48.2986 11.1885 48.2209 10.8859H48.1737C48.2237 11.3218 48.2487 11.716 48.2487 12.0658C48.2487 12.5572 48.2625 13.1541 48.2903 13.8621H47.5574C47.5879 13.2457 47.6018 12.5683 47.6018 11.8298C47.6018 11.1052 47.5879 10.4861 47.5574 9.97807H48.443C48.443 10.0836 48.6873 10.5028 49.1787 11.2385C49.7006 12.0186 50.0005 12.5489 50.0782 12.8293H50.1226C50.0754 12.3851 50.0504 11.9881 50.0504 11.6355C50.0504 11.0969 50.0366 10.5444 50.0088 9.97807H50.7556C50.7279 10.4722 50.714 11.0886 50.714 11.8298C50.7112 12.5794 50.7251 13.2568 50.7528 13.8621Z" fill="#F9F9FA"/>
<path d="M55.0752 11.7882C55.0752 12.3518 54.8948 12.846 54.5311 13.2679C54.1702 13.6899 53.6621 13.9009 53.0097 13.9009C52.7154 13.9009 52.3101 13.8898 51.7937 13.8648C51.8187 13.2652 51.8326 12.5878 51.8326 11.8326C51.8326 11.108 51.8187 10.4917 51.7937 9.98085H52.3156C52.4017 9.98085 52.5294 9.97808 52.6988 9.97252C52.8681 9.96697 52.9792 9.9642 53.0291 9.9642C53.7454 9.9642 54.2673 10.1419 54.5894 10.5C54.9114 10.8582 55.0752 11.2857 55.0752 11.7882ZM54.259 11.9159C54.259 11.5328 54.148 11.2135 53.9259 10.9498C53.7038 10.6888 53.3623 10.5583 52.907 10.5583C52.8209 10.5583 52.7043 10.5666 52.5544 10.5861C52.5738 10.9831 52.5849 11.3995 52.5849 11.8326C52.5849 12.3074 52.596 12.7793 52.6155 13.2457C52.746 13.2707 52.8737 13.2846 53.0042 13.2846C53.4317 13.2846 53.7482 13.1513 53.9536 12.8876C54.1563 12.6211 54.259 12.299 54.259 11.9159Z" fill="#F9F9FA"/>
<path d="M59.0592 13.8621H58.1764C57.9459 13.1569 57.7683 12.7238 57.6461 12.56C57.524 12.3962 57.3241 12.3129 57.0492 12.3129C56.9326 12.3129 56.8243 12.3129 56.7188 12.3157C56.7188 12.8265 56.7272 13.3429 56.7466 13.8648H55.9165C55.9415 13.2652 55.9554 12.5878 55.9554 11.8326C55.9554 11.108 55.9415 10.4917 55.9165 9.98085H56.4329C56.4912 9.98085 56.6161 9.97808 56.8077 9.97252C56.9965 9.96697 57.1741 9.9642 57.3352 9.9642C58.2486 9.9642 58.7039 10.2751 58.7039 10.8998C58.7039 11.394 58.4429 11.741 57.9237 11.9353V11.9798C58.1236 12.0353 58.3013 12.1908 58.4512 12.4489C58.5984 12.7044 58.8038 13.1763 59.0592 13.8621ZM57.9404 11.1191C57.9404 10.7249 57.685 10.525 57.1769 10.525C56.9909 10.525 56.8243 10.5389 56.6827 10.5666C56.705 10.8748 56.7161 11.2774 56.7161 11.7715C56.8243 11.7743 56.9187 11.7771 56.9937 11.7771C57.6239 11.7799 57.9404 11.5578 57.9404 11.1191Z" fill="#F9F9FA"/>
<path d="M63.3345 11.8493C63.3345 12.4601 63.1485 12.9653 62.7737 13.3679C62.3989 13.7704 61.9381 13.9703 61.3856 13.9703C60.8609 13.9703 60.4222 13.7871 60.0669 13.4179C59.7143 13.0486 59.5366 12.5794 59.5366 12.0131C59.5366 11.4023 59.7226 10.897 60.0974 10.4945C60.4722 10.0919 60.9331 9.89201 61.4856 9.89201C62.0103 9.89201 62.4489 10.0752 62.8043 10.4445C63.1569 10.811 63.3345 11.2801 63.3345 11.8493ZM62.5128 11.9381C62.5128 11.5217 62.4073 11.1857 62.1935 10.9276C61.9797 10.6694 61.7188 10.5389 61.405 10.5389C61.1135 10.5389 60.8692 10.6694 60.6666 10.9303C60.4639 11.1913 60.3612 11.5189 60.3612 11.9187C60.3612 12.3323 60.4667 12.6683 60.6804 12.9292C60.8942 13.1874 61.1552 13.3179 61.4661 13.3179C61.7576 13.3179 62.0019 13.1874 62.2046 12.9265C62.41 12.6599 62.5128 12.3323 62.5128 11.9381Z" fill="#F9F9FA"/>
<path d="M65.0198 13.8621H64.1758C64.2008 13.2457 64.2146 12.5683 64.2146 11.8298C64.2146 11.1052 64.2008 10.4861 64.1758 9.97807H65.0198C64.9948 10.4778 64.9809 11.0969 64.9809 11.8298C64.9809 12.5822 64.9948 13.2596 65.0198 13.8621Z" fill="#F9F9FA"/>
<path d="M69.3423 11.7882C69.3423 12.3518 69.1619 12.846 68.7982 13.2679C68.4373 13.6899 67.9292 13.9009 67.2768 13.9009C66.9825 13.9009 66.5772 13.8898 66.0608 13.8648C66.0858 13.2652 66.0997 12.5878 66.0997 11.8326C66.0997 11.108 66.0858 10.4917 66.0608 9.98085H66.5827C66.6688 9.98085 66.7965 9.97808 66.9658 9.97252C67.1352 9.96697 67.2462 9.9642 67.2962 9.9642C68.0125 9.9642 68.5344 10.1419 68.8565 10.5C69.1813 10.8582 69.3423 11.2857 69.3423 11.7882ZM68.5289 11.9159C68.5289 11.5328 68.4178 11.2135 68.1957 10.9498C67.9736 10.6888 67.6321 10.5583 67.1768 10.5583C67.0908 10.5583 66.9742 10.5666 66.8243 10.5861C66.8437 10.9831 66.8548 11.3995 66.8548 11.8326C66.8548 12.3074 66.8659 12.7793 66.8853 13.2457C67.0158 13.2707 67.1435 13.2846 67.274 13.2846C67.7016 13.2846 68.018 13.1513 68.2235 12.8876C68.4262 12.6211 68.5289 12.299 68.5289 11.9159Z" fill="#F9F9FA"/>
<path d="M75.0784 13.8621H74.1233C74.1233 13.7316 74.0317 13.3596 73.8513 12.746H72.4742C72.2882 13.3484 72.1939 13.7205 72.1939 13.8621H71.2971C71.2971 13.7843 71.5303 13.1486 71.994 11.952C72.4576 10.7582 72.6908 10.1002 72.6908 9.97807H73.818C73.818 10.0919 74.029 10.7388 74.4482 11.9242C74.8674 13.1097 75.0784 13.7566 75.0784 13.8621ZM73.7014 12.1796C73.3627 11.1524 73.1905 10.6 73.1905 10.5167H73.1433C73.1433 10.5944 72.9684 11.1497 72.6158 12.1796H73.7014Z" fill="#F9F9FA"/>
<path d="M78.557 10.997C78.557 11.4717 78.3793 11.8243 78.0267 12.0492C77.6741 12.2768 77.241 12.3879 76.7274 12.3879C76.633 12.3879 76.5664 12.3851 76.5275 12.3823C76.5275 12.7571 76.5386 13.2485 76.5608 13.8621H75.7224C75.7474 13.2874 75.7613 12.61 75.7613 11.8298C75.7613 11.1136 75.7474 10.4972 75.7224 9.97808H76.2416C76.3138 9.97808 76.4553 9.9753 76.6663 9.96975C76.8746 9.9642 77.055 9.96142 77.2105 9.96142C77.588 9.96142 77.9073 10.0475 78.1683 10.2168C78.4265 10.389 78.557 10.6499 78.557 10.997ZM77.7879 11.1608C77.7879 10.736 77.5048 10.5222 76.9412 10.5222C76.7996 10.5222 76.6497 10.5361 76.4942 10.5666C76.5164 10.9414 76.5275 11.369 76.5275 11.8437C76.5775 11.8465 76.6358 11.8493 76.6996 11.8493C77.4243 11.8493 77.7879 11.6216 77.7879 11.1608Z" fill="#F9F9FA"/>
<path d="M82.1327 10.997C82.1327 11.4717 81.955 11.8243 81.6024 12.0492C81.2498 12.2768 80.8167 12.3879 80.3031 12.3879C80.2087 12.3879 80.1421 12.3851 80.1032 12.3823C80.1032 12.7571 80.1143 13.2485 80.1365 13.8621H79.2981C79.3231 13.2874 79.337 12.61 79.337 11.8298C79.337 11.1136 79.3231 10.4972 79.2981 9.97808H79.8173C79.8894 9.97808 80.031 9.9753 80.242 9.96975C80.4503 9.9642 80.6307 9.96142 80.7862 9.96142C81.1638 9.96142 81.483 10.0475 81.744 10.2168C82.005 10.389 82.1327 10.6499 82.1327 10.997ZM81.3636 11.1608C81.3636 10.736 81.0805 10.5222 80.5169 10.5222C80.3753 10.5222 80.2254 10.5361 80.0699 10.5666C80.0921 10.9414 80.1032 11.369 80.1032 11.8437C80.1532 11.8465 80.2115 11.8493 80.2753 11.8493C81.0027 11.8493 81.3636 11.6216 81.3636 11.1608Z" fill="#F9F9FA"/>
<path d="M87.9822 11.8493C87.9822 12.4601 87.7962 12.9653 87.4214 13.3679C87.0466 13.7704 86.5858 13.9703 86.0333 13.9703C85.5086 13.9703 85.07 13.7871 84.7146 13.4179C84.362 13.0486 84.1843 12.5794 84.1843 12.0131C84.1843 11.4023 84.3703 10.897 84.7451 10.4945C85.1199 10.0919 85.5808 9.89201 86.1333 9.89201C86.658 9.89201 87.0966 10.0752 87.452 10.4445C87.8046 10.811 87.9822 11.2801 87.9822 11.8493ZM87.1577 11.9381C87.1577 11.5217 87.0522 11.1857 86.8384 10.9276C86.6247 10.6694 86.3637 10.5389 86.05 10.5389C85.7585 10.5389 85.5142 10.6694 85.3115 10.9303C85.1088 11.1913 85.0061 11.5189 85.0061 11.9187C85.0061 12.3323 85.1116 12.6683 85.3281 12.9292C85.5419 13.1874 85.8029 13.3179 86.1138 13.3179C86.4053 13.3179 86.6496 13.1874 86.8523 12.9265C87.0577 12.6599 87.1577 12.3323 87.1577 11.9381Z" fill="#F9F9FA"/>
<path d="M92.0246 13.8621H91.2889C91.2889 13.7815 91.0168 13.3512 90.4699 12.5711C89.898 11.7493 89.5704 11.1885 89.4926 10.8859H89.4454C89.4954 11.3218 89.5204 11.716 89.5204 12.0658C89.5204 12.5572 89.5343 13.1541 89.562 13.8621H88.8291C88.8596 13.2457 88.8735 12.5683 88.8735 11.8298C88.8735 11.1052 88.8596 10.4861 88.8291 9.97807H89.7147C89.7147 10.0836 89.959 10.5028 90.4504 11.2385C90.9724 12.0186 91.2722 12.5489 91.3499 12.8293H91.3944C91.3472 12.3851 91.3222 11.9881 91.3222 11.6355C91.3222 11.0969 91.3083 10.5444 91.2805 9.97807H92.0273C91.9996 10.4722 91.9857 11.0886 91.9857 11.8298C91.9829 12.5794 91.9968 13.2568 92.0246 13.8621Z" fill="#F9F9FA"/>
<defs>
<linearGradient id="paint0_linear" x1="18.5819" y1="9.47508" x2="18.5819" y2="40.9308" gradientUnits="userSpaceOnUse">
<stop stop-color="#257CB0"/>
<stop offset="0.2863" stop-color="#4A93B5"/>
<stop offset="0.767" stop-color="#78BCBB"/>
<stop offset="1" stop-color="#89CFBD"/>
</linearGradient>
<linearGradient id="paint1_linear" x1="10.651" y1="17.2827" x2="30.7732" y2="17.2827" gradientUnits="userSpaceOnUse">
<stop stop-color="#52C1AD"/>
<stop offset="1" stop-color="#DEE89A"/>
</linearGradient>
<linearGradient id="paint2_linear" x1="20.7119" y1="25.204" x2="20.7119" y2="41.046" gradientUnits="userSpaceOnUse">
<stop stop-color="#EC413D"/>
<stop offset="0.1668" stop-color="#DA4452"/>
<stop offset="0.5748" stop-color="#B0487A"/>
<stop offset="0.8619" stop-color="#954A92"/>
<stop offset="1" stop-color="#8A4A9D"/>
</linearGradient>
<linearGradient id="paint3_linear" x1="32.3015" y1="20.9794" x2="32.3015" y2="29.428" gradientUnits="userSpaceOnUse">
<stop stop-color="#F58879"/>
<stop offset="0.1194" stop-color="#F69079"/>
<stop offset="0.7128" stop-color="#FCB877"/>
<stop offset="1" stop-color="#FEC874"/>
</linearGradient>
</defs>
</svg>
