<svg width="141" height="46" viewBox="0 0 141 46" fill="none" xmlns="http://www.w3.org/2000/svg">
<path d="M140.746 39.79C140.746 43.2193 137.962 45.9973 134.525 45.9973H6.22107C2.7868 45.9999 0 43.2193 0 39.79V6.26932C0 2.84269 2.7868 0.062088 6.22107 0.062088H134.525C137.959 0.062088 140.746 2.84269 140.746 6.26932V39.79Z" fill="black"/>
<path d="M36.7034 30.4253C35.9588 32.0727 35.6027 32.8075 34.6423 34.2638C33.3042 36.2961 31.4157 38.829 29.0795 38.8506C27.0022 38.8694 26.468 37.502 23.6488 37.5181C20.8297 37.5343 20.2416 38.8748 18.1643 38.856C15.828 38.8344 14.0394 36.5491 12.7013 34.5141C8.95675 28.8291 8.56827 22.1562 10.8749 18.6111C12.5151 16.0916 15.1023 14.6165 17.5357 14.6165C20.0122 14.6165 21.5716 15.9732 23.6192 15.9732C25.6074 15.9732 26.8187 14.6165 29.6811 14.6165C31.8474 14.6165 34.1405 15.7928 35.7754 17.8278C30.4203 20.7538 31.2917 28.385 36.7034 30.4253Z" fill="white"/>
<path d="M27.5093 12.342C28.5507 11.0095 29.3411 9.1253 29.0524 7.20337C27.3528 7.31912 25.3646 8.39852 24.2018 9.80632C23.147 11.0849 22.2783 12.9772 22.6155 14.8184C24.4743 14.8776 26.3951 13.7713 27.5093 12.342Z" fill="white"/>
<path d="M48.1068 18.525L42.7437 34.2719H45.1986L46.7984 29.4374H51.9889L53.6346 34.2719H56.157L50.7722 18.525H48.1068ZM49.3775 21.1145C49.5582 21.817 49.7552 22.5465 50.0061 23.3352L51.4521 27.5101H47.3407L48.7651 23.3083C48.9809 22.6273 49.1859 21.8924 49.3775 21.1145Z" fill="white"/>
<path d="M63.0983 22.6084C61.4716 22.6084 60.1686 23.2356 59.3026 24.4254L59.2082 22.8587H57.0229L57.0364 23.0579C57.1012 24.0324 57.1282 25.1091 57.1282 26.6488V38.786H59.5157V33.1225C60.2576 34.0081 61.4392 34.5222 62.78 34.5222C64.1748 34.5222 65.4616 33.9758 66.3977 32.9879C67.4445 31.8843 67.9948 30.2988 67.9948 28.4038C67.9948 26.7295 67.5146 25.2813 66.6082 24.2181C65.7206 23.1818 64.4742 22.6084 63.0983 22.6084ZM62.5048 24.5815C64.6334 24.5815 65.5857 26.5492 65.5857 28.498C65.5857 31.0121 64.369 32.5761 62.4131 32.5761C61.0777 32.5761 59.9231 31.6689 59.5993 30.3661C59.5427 30.1642 59.5157 29.8977 59.5157 29.5936V27.677C59.5157 27.5048 59.5535 27.2921 59.5912 27.0902C59.602 27.0256 59.6155 26.961 59.6263 26.8964C59.9824 25.5317 61.164 24.5815 62.5048 24.5815Z" fill="white"/>
<path d="M75.395 22.6084C73.7682 22.6084 72.4652 23.2356 71.5992 24.4254L71.5048 22.8587H69.3223L69.3331 23.0579C69.3978 24.0351 69.4248 25.1091 69.4248 26.6488V38.786H71.8123V33.1225C72.5542 34.0081 73.7358 34.5222 75.0766 34.5222C76.4714 34.5222 77.7582 33.9758 78.697 32.9879C79.7411 31.8843 80.2941 30.2988 80.2941 28.4038C80.2941 26.7295 79.8139 25.2813 78.9048 24.2181C78.0172 23.1818 76.7708 22.6084 75.395 22.6084ZM74.8015 24.5815C76.93 24.5815 77.8823 26.5492 77.8823 28.498C77.8823 31.0121 76.6656 32.5761 74.7097 32.5761C73.3743 32.5761 72.217 31.6689 71.8959 30.3661C71.8393 30.1642 71.8123 29.8977 71.8123 29.5936V27.677C71.8123 27.5021 71.8501 27.2921 71.8879 27.0875C71.8986 27.0229 71.9121 26.9583 71.9229 26.8964C72.279 25.5317 73.4607 24.5815 74.8015 24.5815Z" fill="white"/>
<path d="M90.8017 25.1979C88.5733 24.3365 87.8584 23.6609 87.8584 22.4092C87.8584 21.3567 88.6974 20.2935 90.5723 20.2935C92.1182 20.2935 93.1083 20.8291 93.3753 20.996L93.5777 21.1199L94.2521 19.1306L94.1199 19.0526C93.7207 18.8184 92.5795 18.2747 90.6425 18.2747C87.5967 18.2747 85.4708 20.0674 85.4708 22.6353C85.4708 24.7053 86.8035 26.1535 89.6632 27.1898C91.6892 27.9462 92.4446 28.7187 92.4446 30.0458C92.4446 31.5478 91.2819 32.4791 89.4096 32.4791C88.1902 32.4791 86.9357 32.1238 85.9672 31.5047L85.7595 31.3728L85.1174 33.4078L85.2361 33.4859C86.1372 34.0861 87.8341 34.5222 89.272 34.5222C93.3753 34.5222 94.8321 32.0242 94.8321 29.887C94.8294 27.6851 93.6613 26.3257 90.8017 25.1979Z" fill="white"/>
<path d="M99.1273 20.1454L96.7856 20.8803V22.8587H95.0698V24.7618H96.7856V30.5949C96.7856 32.0054 97.0554 32.9933 97.6111 33.6178C98.1453 34.2019 98.9654 34.5222 99.9204 34.5222C100.824 34.5222 101.464 34.3446 101.766 34.2369L101.901 34.1884L101.787 32.28L101.558 32.3499C101.256 32.4415 100.946 32.4792 100.446 32.4792C99.5211 32.4792 99.1273 31.895 99.1273 30.5249V24.7645H102.008V22.8614H99.1273V20.1454Z" fill="white"/>
<path d="M107.925 22.6084C104.585 22.6084 102.251 25.0956 102.251 28.6568C102.251 32.1104 104.509 34.5249 107.744 34.5249H107.765C110.498 34.5249 113.439 32.6245 113.439 28.4523C113.439 26.7564 112.913 25.3002 111.917 24.2369C110.916 23.1737 109.535 22.6084 107.925 22.6084ZM107.857 24.49C110.005 24.49 110.984 26.5788 110.984 28.5222C110.984 30.9098 109.649 32.6433 107.811 32.6433H107.787C105.977 32.6433 104.66 30.9395 104.66 28.5895C104.663 26.5492 105.65 24.49 107.857 24.49Z" fill="white"/>
<path d="M120.753 22.7188L120.61 22.6838C120.399 22.6326 120.226 22.6084 120.016 22.6084C118.767 22.6084 117.645 23.3433 117.021 24.5276L116.951 22.8614H114.809L114.823 23.0606C114.888 24.0028 114.912 25.0633 114.912 26.4926L114.89 34.2773H117.278V28.2046C117.278 27.8735 117.299 27.5613 117.343 27.2813C117.612 25.8224 118.597 24.8803 119.854 24.8803C120.1 24.8803 120.291 24.8991 120.496 24.9206L120.753 24.9476V22.7188Z" fill="white"/>
<path d="M126.121 22.5869C122.943 22.5869 120.723 25.1198 120.723 28.751C120.723 32.245 122.932 34.5034 126.35 34.5034C128.147 34.5034 129.399 34.1104 130.13 33.7793L130.273 33.7147L129.814 31.9381L129.615 32.0189C128.965 32.2826 128.099 32.5518 126.623 32.5518C125.584 32.5518 123.194 32.21 123.046 29.0983L130.753 29.1225L130.786 28.9691C130.834 28.7268 130.858 28.4011 130.858 27.9758C130.858 25.4886 129.617 22.5869 126.121 22.5869ZM125.962 24.3984C126.69 24.3984 127.278 24.6219 127.716 25.066C128.403 25.7632 128.522 26.7914 128.538 27.284H123.092C123.315 25.9085 124.176 24.3984 125.962 24.3984Z" fill="white"/>
<path d="M42.7437 7.76864C43.41 7.67981 44.1843 7.61521 45.0341 7.61521C46.5745 7.61521 47.6698 7.92477 48.3955 8.53311C49.1455 9.14145 49.5771 10.0136 49.5771 11.2195C49.5771 12.4362 49.1455 13.4294 48.382 14.1159C47.5943 14.813 46.3128 15.1899 44.6996 15.1899C43.9226 15.1899 43.2967 15.1683 42.741 15.101V7.76864H42.7437ZM43.8282 14.3716C44.098 14.4146 44.4918 14.4146 44.9127 14.4146C47.2031 14.4254 48.4468 13.2652 48.4468 11.2518C48.4603 9.47254 47.3515 8.37698 45.0853 8.37698C44.5323 8.37698 44.1114 8.42274 43.8282 8.47658V14.3716Z" fill="white"/>
<path d="M53.4187 15.2437C51.8162 15.2437 50.5618 14.1832 50.5618 12.49C50.5618 10.6973 51.8783 9.64751 53.5158 9.64751C55.2289 9.64751 56.3863 10.7646 56.3863 12.3904C56.3863 14.3797 54.8458 15.2437 53.4322 15.2437H53.4187ZM53.4565 14.5142C54.4897 14.5142 55.2667 13.6394 55.2667 12.4254C55.2667 11.5183 54.7622 10.3797 53.4808 10.3797C52.2128 10.3797 51.6571 11.4402 51.6571 12.4577C51.6571 13.6286 52.3963 14.5142 53.443 14.5142H53.4565Z" fill="white"/>
<path d="M58.1022 9.77133L58.9034 12.4819C59.0626 13.0795 59.2245 13.6421 59.3351 14.1966H59.3728C59.5077 13.6556 59.7047 13.0795 59.9016 12.4927L60.8755 9.77133H61.7874L62.71 12.447C62.9312 13.0768 63.1039 13.6529 63.2388 14.1939H63.2765C63.3763 13.6529 63.5355 13.0876 63.7325 12.4577L64.5823 9.77133H65.6533L63.7325 15.1226H62.7478L61.8359 12.5681C61.6255 11.9597 61.4528 11.4295 61.3071 10.7996H61.2829C61.1345 11.4402 60.951 12.0055 60.7406 12.5789L59.7802 15.1226H58.7955L56.9961 9.77133H58.1022Z" fill="white"/>
<path d="M66.7351 11.2195C66.7351 10.6542 66.7216 10.2128 66.6865 9.77132H67.6469L67.709 10.6462H67.7333C68.03 10.1482 68.7179 9.65019 69.7026 9.65019C70.5282 9.65019 71.8096 10.0916 71.8096 11.9274V15.1226H70.7278V12.0378C70.7278 11.1764 70.369 10.447 69.3492 10.447C68.6478 10.447 68.0921 10.8992 67.8951 11.4429C67.8466 11.564 67.8223 11.7417 67.8223 11.8951V15.1253H66.7378V11.2195H66.7351Z" fill="white"/>
<path d="M73.5684 7.27067H74.6529V15.1226H73.5684V7.27067Z" fill="white"/>
<path d="M78.8775 15.2437C77.2777 15.2437 76.0205 14.1832 76.0205 12.49C76.0205 10.6973 77.337 9.64751 78.9773 9.64751C80.6877 9.64751 81.845 10.7646 81.845 12.3904C81.845 14.3797 80.3046 15.2437 78.8883 15.2437H78.8775ZM78.9152 14.5142C79.9485 14.5142 80.7254 13.6394 80.7254 12.4254C80.7254 11.5183 80.2209 10.3797 78.9395 10.3797C77.6715 10.3797 77.1158 11.4402 77.1158 12.4577C77.1158 13.6286 77.855 14.5142 78.9017 14.5142H78.9152Z" fill="white"/>
<path d="M87.4135 13.8386C87.4135 14.3016 87.4378 14.7565 87.4998 15.1199H86.5259L86.4261 14.4469H86.3911C86.07 14.8669 85.4172 15.2437 84.5674 15.2437C83.3614 15.2437 82.7437 14.4819 82.7437 13.7067C82.7437 12.412 84.0251 11.704 86.3263 11.7175V11.6071C86.3263 11.1657 86.1914 10.3581 84.972 10.3689C84.4055 10.3689 83.8255 10.5116 83.4073 10.7673L83.1618 10.1159C83.6555 9.83862 84.3812 9.65019 85.1312 9.65019C86.9657 9.65019 87.4081 10.7673 87.4081 11.8386V13.8386H87.4135ZM86.3533 12.3904C85.1717 12.3689 83.8282 12.5573 83.8282 13.5963C83.8282 14.237 84.2949 14.525 84.8371 14.525C85.6249 14.525 86.1294 14.0836 86.302 13.6286C86.3398 13.529 86.3506 13.4187 86.3506 13.3191V12.3904H86.3533Z" fill="white"/>
<path d="M94.2954 7.27067V13.739C94.2954 14.2154 94.3089 14.7565 94.344 15.1226H93.3701L93.3215 14.1939H93.2972C92.9654 14.7915 92.2505 15.2437 91.2766 15.2437C89.836 15.2437 88.7137 14.1482 88.7137 12.5223C88.7002 10.7296 89.9466 9.64751 91.3872 9.64751C92.3126 9.64751 92.9277 10.0351 93.1866 10.455H93.2109V7.27067H94.2954ZM93.2136 11.949C93.2136 11.8171 93.2028 11.661 93.1651 11.5291C93.0059 10.9207 92.4151 10.412 91.6004 10.412C90.4808 10.412 89.8144 11.2976 89.8144 12.4685C89.8144 13.564 90.4187 14.4577 91.5761 14.4577C92.3018 14.4577 92.9681 14.0163 93.1651 13.2976C93.2028 13.1657 93.2136 13.0311 93.2136 12.8776V11.949Z" fill="white"/>
<path d="M101.132 15.2437C99.5318 15.2437 98.2747 14.1832 98.2747 12.49C98.2747 10.6973 99.5939 9.64751 101.231 9.64751C102.945 9.64751 104.102 10.7646 104.102 12.3904C104.102 14.3797 102.561 15.2437 101.148 15.2437H101.132ZM101.169 14.5142C102.203 14.5142 102.98 13.6394 102.98 12.4254C102.98 11.5183 102.475 10.3797 101.194 10.3797C99.9257 10.3797 99.37 11.4402 99.37 12.4577C99.37 13.6286 100.109 14.5142 101.156 14.5142H101.169Z" fill="white"/>
<path d="M105.467 11.2195C105.467 10.6542 105.453 10.2128 105.418 9.77132H106.379L106.441 10.6461H106.465C106.762 10.1482 107.45 9.65019 108.434 9.65019C109.26 9.65019 110.541 10.0916 110.541 11.9274V15.1226H109.457V12.0378C109.457 11.1764 109.101 10.447 108.078 10.447C107.377 10.447 106.821 10.8992 106.624 11.4429C106.576 11.564 106.551 11.7417 106.551 11.8951V15.1253H105.467V11.2195Z" fill="white"/>
<path d="M116.217 8.48735V9.76864H117.769V10.5089H116.217V13.3945C116.217 14.0566 116.428 14.4335 117.03 14.4335C117.324 14.4335 117.496 14.4119 117.658 14.3662L117.707 15.1064C117.496 15.1737 117.164 15.2383 116.746 15.2383C116.242 15.2383 115.834 15.0822 115.575 14.8292C115.279 14.5304 115.157 14.0539 115.157 13.4241V10.5116H114.235V9.77133H115.157V8.78614L116.217 8.48735Z" fill="white"/>
<path d="M118.988 7.27067H120.073V10.6112H120.097C120.27 10.3339 120.54 10.0809 120.874 9.92476C121.195 9.7471 121.575 9.64751 121.983 9.64751C122.781 9.64751 124.063 10.089 124.063 11.9355V15.1199H122.978V12.0486C122.978 11.1737 122.622 10.455 121.6 10.455C120.898 10.455 120.356 10.8965 120.146 11.4295C120.084 11.5614 120.07 11.7067 120.07 11.8951V15.1253H118.986V7.27067H118.988Z" fill="white"/>
<path d="M126.44 12.6112C126.464 13.9274 127.389 14.4685 128.471 14.4685C129.248 14.4685 129.728 14.3473 130.122 14.202L130.319 14.8884C129.936 15.0445 129.272 15.2303 128.323 15.2303C126.499 15.2303 125.39 14.1347 125.39 12.5331C125.39 10.9073 126.461 9.63674 128.199 9.63674C130.144 9.63674 130.648 11.1737 130.648 12.1589C130.648 12.3581 130.637 12.5116 130.613 12.6219L126.44 12.6112ZM129.607 11.9167C129.618 11.3083 129.323 10.3339 128.115 10.3339C127.006 10.3339 126.539 11.241 126.453 11.9167H129.607Z" fill="white"/>
</svg>
